[ConversionWorker] Logging FFmpeg output to: ffmpeg_logs\ffmpeg_conversion_t_wav_20250525_153903.log\n[ConversionWorker] Getting duration with command: ffprobe -v error -show_entries format=duration -of default=noprint_wrappers=1:nokey=1 Z:\AAAAA01\t.wav\n[ConversionWorker] Duration for t.wav: 11418446 ms\n[ConversionWorker] Starting FFmpeg for t.wav: ffmpeg -i Z:\AAAAA01\t.wav -b:a 256k -vn -y -loglevel error -stats -progress pipe:1 Z:\AAAAA01\t.mp3\n[ConversionWorker] FFmpeg process started. PID: 29408\n[STDOUT RAW] bitrate= 153.6kbits/s\n[STDOUT RAW] total_size=81164\n[STDOUT RAW] out_time_us=4225958\n[STDOUT RAW] out_time_ms=4225958\n[STDOUT RAW] out_time=00:00:04.225958\n[STDOUT RAW] dup_frames=0\n[STDOUT RAW] drop_frames=0\n[STDOUT RAW] speed=8.23x\n[STDOUT RAW] progress=continue\n[STDERR RAW] size=      79KiB time=00:00:04.22 bitrate= 153.6kbits/s speed=8.23x\n[STDOUT RAW] bitrate= 157.1kbits/s\n[STDOUT RAW] total_size=179564\n[STDOUT RAW] out_time_us=9145958\n[STDOUT RAW] out_time_ms=9145958\n[STDOUT RAW] out_time=00:00:09.145958\n[STDOUT RAW] dup_frames=0\n[STDOUT RAW] drop_frames=0\n[STDOUT RAW] speed=8.83x\n[STDOUT RAW] progress=continue\n[STDERR RAW] size=     175KiB time=00:00:09.14 bitrate= 157.1kbits/s speed=8.83x\n[STDOUT RAW] bitrate=  81.1kbits/s\n[STDOUT RAW] total_size=262144\n[STDOUT RAW] out_time_us=25849958\n[STDOUT RAW] out_time_ms=25849958\n[STDOUT RAW] out_time=00:00:25.849958\n[STDOUT RAW] dup_frames=0\n[STDOUT RAW] drop_frames=0\n[STDOUT RAW] speed=16.7x\n[STDOUT RAW] progress=continue\n[STDERR RAW] size=     256KiB time=00:00:25.84 bitrate=  81.1kbits/s speed=16.7x\n[STDOUT RAW] bitrate= 146.5kbits/s\n[STDOUT RAW] total_size=2883584\n[STDOUT RAW] out_time_us=157417958\n[STDOUT RAW] out_time_ms=157417958\n[STDOUT RAW] out_time=00:02:37.417958\n[STDOUT RAW] dup_frames=0\n[STDOUT RAW] drop_frames=0\n[STDOUT RAW] speed=75.9x\n[STDOUT RAW] progress=continue\n[STDERR RAW] size=    2816KiB time=00:02:37.41 bitrate= 146.5kbits/s speed=75.9x\n[STDOUT RAW] bitrate= 156.3kbits/s\n[STDOUT RAW] total_size=5505024\n[STDOUT RAW] out_time_us=281833958\n[STDOUT RAW] out_time_ms=281833958\n[STDOUT RAW] out_time=00:04:41.833958\n[STDOUT RAW] dup_frames=0\n[STDOUT RAW] drop_frames=0\n[STDOUT RAW] speed= 109x\n[STDOUT RAW] progress=continue\n[STDERR RAW] size=    5376KiB time=00:04:41.83 bitrate= 156.3kbits/s speed= 109x\n[STDOUT RAW] bitrate= 158.6kbits/s\n[STDOUT RAW] total_size=8126464\n[STDOUT RAW] out_time_us=409873958\n[STDOUT RAW] out_time_ms=409873958\n[STDOUT RAW] out_time=00:06:49.873958\n[STDOUT RAW] dup_frames=0\n[STDOUT RAW] drop_frames=0\n[STDOUT RAW] speed= 132x\n[STDOUT RAW] progress=continue\n[ConversionWorker] Cancel method called.\n[ConversionWorker] Cancellation requested during processing. Terminating FFmpeg.\n[ConversionWorker] Waiting for reader threads to join...\n[STDERR RAW] size=    7936KiB time=00:06:49.87 bitrate= 158.6kbits/s speed= 132x\n[ConversionWorker] Process poll is None after loop, waiting for process to terminate...\n[ConversionWorker] FFmpeg process ended. Return code: 1\n[ConversionWorker] Closing FFmpeg log file.\n